<?xml version="1.0" encoding="utf-8"?>
<!-- Generator: Adobe Illustrator 21.0.0, SVG Export Plug-In . SVG Version: 6.00 Build 0)  -->
<svg version="1.1" id="Layer_1" xmlns="http://www.w3.org/2000/svg" xmlns:xlink="http://www.w3.org/1999/xlink" x="0px" y="0px"
	 viewBox="0 0 330 295.5" style="enable-background:new 0 0 330 295.5;" xml:space="preserve">
<style type="text/css">
	.st0{stroke:#000000;stroke-width:4;stroke-miterlimit:10;}
</style>
<title>api</title>
<g>
	<g>
		<path class="st0" d="M164,158.4c4,0,7.3,3.3,7.3,7.3s-3.3,7.3-7.3,7.3c-4,0-7.3-3.3-7.3-7.3S160,158.4,164,158.4 M164,155.3
			c-5.8,0-10.5,4.7-10.5,10.5c0,5.8,4.7,10.5,10.5,10.5c5.8,0,10.5-4.7,10.5-10.5C174.5,160,169.8,155.3,164,155.3L164,155.3z"/>
	</g>
	<g>
		<path class="st0" d="M192.3,56.5c38.5,0,69.8,31.3,69.8,69.8c0,1.1,0,2.1-0.1,3.2l-0.1,2.6l2.5,0.6c22.2,5.4,38.4,27.9,38.4,53.5
			c0,29.9-21.4,53.3-48.7,53.3H76.2c-28.6,0-51.1-22.3-51.1-50.7c0-24.6,17.1-46.1,40.6-51.1L69,137l-0.8-3.2c-0.7-2.7-1-5.5-1-8.2
			c0-19.1,16.1-34.6,35.9-34.6c7.7,0,15.1,2.3,21.3,6.8l3.1,2.2l1.6-3.4C140.6,72.2,165.4,56.5,192.3,56.5 M153.1,132.3
			C153.1,132.3,153.1,132.3,153.1,132.3L153.1,132.3l-0.2,0.1l-4.7,2l0,0c0,0-0.1,0-0.1,0c0,0,0,0,0,0l-3.8-3.4
			c-1-0.9-2.3-1.4-3.8-1.4c-1.3,0-2.6,0.5-3.6,1.3l-0.1,0.1l-0.1,0.1l-7.4,7.4l-0.1,0.1l-0.1,0.1c-1.7,2.1-1.7,5.3,0.1,7.4l3.4,3.7
			c0,0,0,0.1,0,0.1c0,0,0,0,0,0l-0.1,0.1l0,0.1l-1.9,4.7c0,0-0.1,0.1,0,0.1c0,0,0,0,0,0l-5.2,0.3c-2.7,0.1-5,2.3-5.4,5
			c0,0.1-0.4,3-0.4,5.7s0.4,5.5,0.4,5.7c0.4,2.7,2.7,4.8,5.4,5l5,0.3c0,0,0.1,0,0.1,0c0,0,0,0,0,0l0,0.1l0,0.1l2,4.7
			c0,0,0,0.1,0,0.1c0,0,0,0,0,0l-3.5,3.9c-1.8,2-1.9,5.3-0.1,7.4l0.1,0.1l0.1,0.1l7.4,7.4l0.1,0.1l0.1,0.1c1,0.8,2.3,1.3,3.6,1.3
			c1.4,0,2.7-0.5,3.8-1.4l3.7-3.4c0,0,0.1,0,0.1-0.1l0.1,0.1l0.1,0l4.7,1.9c0,0,0.1,0.1,0.1,0.1c0,0,0,0,0,0l0.3,5.2
			c0.1,2.7,2.3,5,5,5.4c0.1,0,3,0.4,5.7,0.4c2.7,0,5.5-0.4,5.7-0.4c2.7-0.4,4.8-2.7,5-5.4l0.3-5c0,0,0.1-0.1,0-0.1c0,0,0,0,0,0
			l0.1,0l0.1,0l4.8-2c0,0,0.1,0,0.1,0c0,0,0,0,0,0l3.8,3.4c1,0.9,2.3,1.4,3.8,1.4c1.3,0,2.6-0.5,3.6-1.3l0.1-0.1l0.1-0.1l7.4-7.4
			l0.1-0.1l0.1-0.1c1.7-2.1,1.7-5.3-0.1-7.4l-3.4-3.7c0,0,0-0.1-0.1-0.1c0,0,0,0,0,0l0.1-0.1l0-0.1l1.9-4.7c0,0,0.1-0.1,0-0.1h0
			l5.2-0.3c2.7-0.1,5-2.3,5.4-5c0-0.1,0.4-3,0.4-5.7c0-2.7-0.4-5.5-0.4-5.7c-0.4-2.7-2.7-4.8-5.4-5l-5-0.3c0,0-0.1,0-0.1,0
			c0,0,0,0,0,0l0-0.1l0-0.1l-2-4.7c0,0,0-0.1,0-0.1c0,0,0,0,0,0l3.5-3.9c1.8-2,1.9-5.3,0.1-7.4l-0.1-0.1l-0.1-0.1l-7.4-7.4l-0.1-0.1
			l-0.1-0.1c-1-0.8-2.3-1.3-3.6-1.3c-1.4,0-2.7,0.5-3.8,1.4l-3.7,3.4c0,0-0.1,0-0.1,0.1l-0.1-0.1l-0.1,0l-4.7-1.9
			c0,0-0.1-0.1-0.1-0.1c0,0,0,0,0,0l-0.3-5.2c-0.1-2.7-2.3-5-5-5.4c-0.1,0-3-0.4-5.7-0.4c-2.7,0-5.5,0.4-5.7,0.4
			c-2.7,0.4-4.8,2.7-5,5.4l-0.3,5C153.1,132.3,153,132.3,153.1,132.3 M192.3,53.3c-29.2,0-54.4,17.1-66.1,41.9
			c-6.5-4.6-14.5-7.4-23.2-7.4c-21.6,0-39.1,16.9-39.1,37.8c0,3.1,0.4,6.1,1.1,9C40.5,139.8,22,162.1,22,188.8
			c0,30.6,24.3,53.9,54.2,53.9h177.9c28.7,0,51.9-24.5,51.9-56.5c0-27.8-17.5-50.9-40.8-56.6c0-1.1,0.1-2.2,0.1-3.3
			C265.3,86,232.6,53.3,192.3,53.3L192.3,53.3z M148.1,137.5c0.5,0,0.9-0.1,1.3-0.3l4.6-1.9c1.1-0.4,2.1-1.6,2.1-2.8l0.3-5.2
			c0.1-1.2,1.1-2.3,2.2-2.4c0,0,2.7-0.4,5.2-0.4s5.2,0.4,5.2,0.4c1.2,0.2,2.2,1.2,2.2,2.4l0.3,5.2c0.1,1.2,1,2.4,2.1,2.8l4.6,1.9
			c0.4,0.2,0.9,0.3,1.3,0.3c0.8,0,1.6-0.3,2.2-0.8l3.9-3.5c0.4-0.4,1-0.6,1.6-0.6c0.6,0,1.1,0.2,1.6,0.5l7.4,7.4
			c0.8,0.9,0.7,2.3-0.1,3.2l-3.5,3.9c-0.8,0.9-1,2.4-0.5,3.5l1.9,4.6c0.4,1.1,1.6,2.1,2.8,2.1l5.2,0.3c1.2,0.1,2.3,1.1,2.4,2.2
			c0,0,0.4,2.7,0.4,5.2c0,2.5-0.4,5.2-0.4,5.2c-0.2,1.2-1.2,2.2-2.4,2.2l-5.2,0.3c-1.2,0.1-2.4,1-2.8,2.1l-1.9,4.6
			c-0.5,1-0.3,2.6,0.5,3.5l3.5,3.9c0.8,0.9,0.8,2.3,0.1,3.2l-7.4,7.4c-0.4,0.4-1,0.5-1.6,0.5c-0.6,0-1.2-0.2-1.7-0.6l-3.9-3.5
			c-0.5-0.5-1.4-0.8-2.2-0.8c-0.5,0-0.9,0.1-1.3,0.3l-4.6,1.9c-1.1,0.4-2.1,1.6-2.1,2.8l-0.3,5.2c-0.1,1.2-1.1,2.3-2.2,2.4
			c0,0-2.7,0.4-5.2,0.4c-2.5,0-5.2-0.4-5.2-0.4c-1.2-0.2-2.2-1.2-2.2-2.4l-0.3-5.2c-0.1-1.2-1-2.4-2.1-2.8l-4.6-1.9
			c-0.4-0.2-0.9-0.3-1.3-0.3c-0.8,0-1.6,0.3-2.2,0.8l-3.9,3.5c-0.4,0.4-1,0.6-1.6,0.6c-0.6,0-1.1-0.2-1.6-0.5l-7.4-7.4
			c-0.8-0.9-0.7-2.4,0.1-3.2l3.5-3.9c0.8-0.9,1-2.4,0.5-3.5l-1.9-4.6c-0.4-1.1-1.6-2.1-2.8-2.1l-5.2-0.3c-1.2-0.1-2.3-1.1-2.4-2.2
			c0,0-0.4-2.7-0.4-5.2c0-2.5,0.4-5.2,0.4-5.2c0.2-1.2,1.2-2.2,2.4-2.2l5.2-0.3c1.2-0.1,2.4-1,2.8-2.1l1.9-4.6
			c0.5-1,0.3-2.6-0.5-3.5l-3.5-3.9c-0.8-0.9-0.8-2.3-0.1-3.2l7.4-7.4c0.4-0.4,1-0.5,1.6-0.5c0.6,0,1.2,0.2,1.6,0.6l3.9,3.5
			C146.5,137.3,147.4,137.5,148.1,137.5L148.1,137.5z"/>
	</g>
</g>
</svg>
