<?xml version="1.0" encoding="utf-8"?>
<!-- Generator: Adobe Illustrator 21.0.0, SVG Export Plug-In . SVG Version: 6.00 Build 0)  -->
<svg version="1.1" id="Layer_1" xmlns="http://www.w3.org/2000/svg" xmlns:xlink="http://www.w3.org/1999/xlink" x="0px" y="0px"
	 viewBox="0 0 278.7 352" style="enable-background:new 0 0 278.7 352;" xml:space="preserve">
<style type="text/css">
	.st0{fill:none;stroke:#000000;stroke-width:6;stroke-linecap:round;stroke-linejoin:round;}
</style>
<title>design</title>
<polyline class="st0" points="132.7,216.8 196,280 242,234 178.7,170.8 "/>
<polyline class="st0" points="144.2,136.3 81,73 35,119 98.2,182.3 "/>
<line class="st0" x1="219" y1="211" x2="207.5" y2="222.5"/>
<line class="st0" x1="196" y1="188" x2="173" y2="211"/>
<line class="st0" x1="127" y1="119" x2="115.5" y2="130.5"/>
<line class="st0" x1="104" y1="96" x2="81" y2="119"/>
<path class="st0" d="M58,222.5L35,280l57.5-23l146.2-146.2c4.5-4.5,4.5-11.7,0-16.2l-18.3-18.3c-4.5-4.5-11.7-4.5-16.2,0L58,222.5z"
	/>
<line class="st0" x1="219" y1="130.5" x2="184.5" y2="96"/>
<line class="st0" x1="92.5" y1="257" x2="58" y2="222.5"/>
</svg>
