<?xml version="1.0" encoding="utf-8"?>
<!-- Generator: Adobe Illustrator 21.0.0, SVG Export Plug-In . SVG Version: 6.00 Build 0)  -->
<svg version="1.1" id="Layer_1" xmlns="http://www.w3.org/2000/svg" xmlns:xlink="http://www.w3.org/1999/xlink" x="0px" y="0px"
	 viewBox="0 0 286.5 286.5" style="enable-background:new 0 0 286.5 286.5;" xml:space="preserve">
<style type="text/css">
	.st0{stroke:#000000;stroke-width:2;stroke-miterlimit:10;}
</style>
<title>frameworks</title>
<g>
	<g>
		<path class="st0" d="M137.5,107.1V76.6h-10.8v30.3c0,7.5-2.9,9.6-7.4,9.6c-2.1,0-4.1-0.4-5.6-0.9l-1.2,8.8
			c2.1,0.7,5.4,1.1,7.9,1.1C130.9,125.5,137.5,120.8,137.5,107.1z"/>
		<path class="st0" d="M158.3,116.6c-4.6,0-9.1-1.5-12.1-3l-2.2,9c2.7,1.5,8.1,2.9,13.6,2.9c13.2,0,19.4-6.9,19.4-14.9
			c0-6.8-4-11.2-12.5-14.3c-6.2-2.4-8.9-3.7-8.9-6.8c0-2.5,2.3-4.6,7-4.6c4.7,0,8.1,1.4,10.1,2.3l2.4-8.8c-2.9-1.3-6.9-2.4-12.3-2.4
			c-11.4,0-18.2,6.3-18.2,14.5c0,7,5.2,11.4,13.2,14.2c5.8,2.1,8.1,3.8,8.1,6.8C165.9,114.5,163.3,116.6,158.3,116.6z"/>
		<path class="st0" d="M246,239.5V13H75.5C59.2,13,46,26.2,46,42.5V269h170.5C232.8,269,246,255.8,246,239.5z M50,42.5
			C50,28.4,61.4,17,75.5,17H242v222.5c0,14.1-11.4,25.5-25.5,25.5H50V42.5z"/>
		<rect x="75.2" y="176.7" class="st0" width="141.1" height="4"/>
		<rect x="75.2" y="196.3" class="st0" width="141.1" height="4"/>
		<rect x="75.2" y="215.9" class="st0" width="141.1" height="4"/>
	</g>
</g>
</svg>
