<svg id="Layer_1" data-name="Layer 1" xmlns="http://www.w3.org/2000/svg" viewBox="0 0 388 287.41"><title>programming</title><g id="programming"><path d="M437.81,365H294.11v7.19H207.89V365H64.19A7.18,7.18,0,0,0,57,372.15a9.37,9.37,0,0,0,7,8.74l43.61,9.7A157.79,157.79,0,0,0,136,393.7H366a157.07,157.07,0,0,0,28.39-3.12l43.63-9.7a9.35,9.35,0,0,0,7-8.74A7.18,7.18,0,0,0,437.81,365Zm-1.39,8.91-43.63,9.7A151.21,151.21,0,0,1,366,386.52H136a152,152,0,0,1-26.84-2.95l-43.61-9.7a2.29,2.29,0,0,1-1.39-1.72H200.7v7.19H301.3v-7.19H437.81A2.33,2.33,0,0,1,436.43,373.87Z" transform="translate(-57 -106.3)"/><path d="M401.89,120.67H100.11a7.18,7.18,0,0,0-7.19,7.19V343.41H409.07V127.85A7.18,7.18,0,0,0,401.89,120.67Zm0,215.56H100.11V127.85H401.89V336.22Z" transform="translate(-57 -106.3)"/><path d="M423.44,127.85a21.62,21.62,0,0,0-21.56-21.56H100.11a21.62,21.62,0,0,0-21.56,21.56V357.78H423.44Zm-7.19,222.74H85.74V127.85a14.38,14.38,0,0,1,14.37-14.37H401.89a14.38,14.38,0,0,1,14.37,14.37Z" transform="translate(-57 -106.3)"/><rect x="64.67" y="208.37" width="14.37" height="7.19"/><rect x="64.67" y="186.81" width="14.37" height="7.19"/><rect x="64.67" y="165.26" width="14.37" height="7.19"/><rect x="64.67" y="143.7" width="14.37" height="7.19"/><rect x="64.67" y="122.15" width="14.37" height="7.19"/><rect x="64.67" y="100.59" width="14.37" height="7.19"/><rect x="64.67" y="79.04" width="14.37" height="7.19"/><rect x="64.67" y="57.48" width="14.37" height="7.19"/><rect x="64.67" y="35.93" width="14.37" height="7.19"/><rect x="93.41" y="165.26" width="57.48" height="7.19"/><rect x="158.07" y="165.26" width="14.37" height="7.19"/><rect x="165.26" y="208.37" width="71.85" height="7.19"/><rect x="143.7" y="208.37" width="14.37" height="7.19"/><rect x="93.41" y="208.37" width="43.11" height="7.19"/><rect x="122.15" y="186.81" width="57.48" height="7.19"/><rect x="244.3" y="165.26" width="57.48" height="7.19"/><rect x="179.63" y="165.26" width="57.48" height="7.19"/><rect x="222.74" y="122.15" width="57.48" height="7.19"/><rect x="201.19" y="122.15" width="14.37" height="7.19"/><rect x="93.41" y="100.59" width="14.37" height="7.19"/><rect x="136.52" y="122.15" width="28.74" height="7.19"/><rect x="93.41" y="79.04" width="28.74" height="7.19"/><rect x="129.33" y="79.04" width="28.74" height="7.19"/><rect x="165.26" y="79.04" width="93.41" height="7.19"/><rect x="194" y="57.48" width="28.74" height="7.19"/><rect x="158.07" y="57.48" width="28.74" height="7.19"/><rect x="229.93" y="57.48" width="14.37" height="7.19"/><rect x="229.93" y="143.7" width="35.93" height="7.19"/><rect x="194" y="143.7" width="28.74" height="7.19"/><rect x="93.41" y="143.7" width="79.04" height="7.19"/><rect x="93.41" y="57.48" width="57.48" height="7.19"/><rect x="93.41" y="35.93" width="14.37" height="7.19"/></g></svg>