<?xml version="1.0" encoding="utf-8"?>
<!-- Generator: Adobe Illustrator 21.0.0, SVG Export Plug-In . SVG Version: 6.00 Build 0)  -->
<svg version="1.1" id="Layer_1" xmlns="http://www.w3.org/2000/svg" xmlns:xlink="http://www.w3.org/1999/xlink" x="0px" y="0px"
	 viewBox="0 0 329 310.9" style="enable-background:new 0 0 329 310.9;" xml:space="preserve">
<title>rwd</title>
<g>
	<g>
		<g>
			<path d="M148.5,208.7c-1.4,1.4-2.1,3.4-2.1,5.5s0.7,4.1,2.4,5.5c1.4,1.4,3.4,2.1,5.5,2.1c2.1,0,4.1-0.7,5.5-2.1
				c1.4-1.4,2.1-3.4,2.1-5.5s-0.7-4.1-2.1-5.5C156.7,206,151.6,206,148.5,208.7z"/>
		</g>
		<g>
			<path d="M288.9,30H19c-6.2,0-11,4.8-11,11v181.1c0,6.2,4.8,11,11,11h108.5V271H86.2c-2.1,0-3.8,1.7-3.8,3.8
				c0,2.1,1.7,3.8,3.8,3.8h132.9c-1.4-2.1-2.1-4.5-2.4-7.2h-36.2v-37.9h36.2v-7.2H19c-2.1,0-3.8-1.7-3.8-3.8v-19.3h201.4V196H15.6
				V41c0-2.1,1.7-3.8,3.8-3.8h269.6c2.1,0,3.8,1.7,3.8,3.8v72h7.2V41C300,35.2,295.1,30,288.9,30z M134.7,233.2h38.6V271h-38.6
				V233.2z"/>
		</g>
	</g>
	<g>
		<g>
			<path d="M311,280h-76.1c-6.2,0-11-4.8-11-11V131.2c0-6.2,4.8-11,11-11H311c6.2,0,11,4.8,11,11V269C322,274.8,316.8,280,311,280z
				 M234.9,127.8c-2.1,0-3.8,1.7-3.8,3.8v137.7c0,2.1,1.7,3.8,3.8,3.8H311c2.1,0,3.8-1.7,3.8-3.8V131.6c0-2.1-1.7-3.8-3.8-3.8H234.9
				z"/>
		</g>
	</g>
	<g>
		<path d="M283.4,137.4h-21c-2.1,0-3.8-1.7-3.8-3.8s1.7-3.8,3.8-3.8h21c2.1,0,3.8,1.7,3.8,3.8C286.9,136.1,285.5,137.4,283.4,137.4z
			"/>
	</g>
	<g>
		<g>
			<path d="M272.8,270c-1,0-1.7-0.3-2.4-1c-0.7-0.7-1-1.7-1-2.4c0-1,0.3-1.7,1-2.4c1.4-1.4,3.8-1.4,5.2,0c0.7,0.7,1,1.7,1,2.4
				c0,1-0.3,1.7-1,2.4C274.8,269.7,273.8,270,272.8,270z"/>
			<path d="M272.8,271.7c-1.4,0-2.8-0.7-3.8-1.7c-1-1-1.7-2.4-1.7-3.8s0.7-2.8,1.4-3.8c2.1-2.1,5.5-2.1,7.6,0c1,1,1.7,2.4,1.7,3.8
				s-0.7,2.8-1.7,3.8C275.5,271,274.1,271.7,272.8,271.7z M273.1,264.5c-0.3,0-1,0-1.4,0.3s-0.3,0.7-0.3,1.4c0,0.3,0.3,1,0.7,1.4
				c0.7,0.7,1.7,0.7,2.4,0c0.3-0.3,0.3-0.7,0.3-1.4c0-0.3,0-1-0.3-1.4C273.8,264.8,273.5,264.5,273.1,264.5z"/>
		</g>
	</g>
</g>
</svg>
