<?xml version="1.0" encoding="utf-8"?>
<!-- Generator: Adobe Illustrator 21.0.0, SVG Export Plug-In . SVG Version: 6.00 Build 0)  -->
<svg version="1.1" id="Layer_1" xmlns="http://www.w3.org/2000/svg" xmlns:xlink="http://www.w3.org/1999/xlink" x="0px" y="0px"
	 viewBox="0 0 170.2 234" style="enable-background:new 0 0 170.2 234;" xml:space="preserve">
<style type="text/css">
	.st0{fill:#FFFFFF;}
</style>
<title>location</title>
<g transform="translate(0,-952.36218)">
	<path class="st0" d="M86,958.4c-39.1,0-71.2,30.2-71.2,74c0,15.9,4.6,27.7,11.3,40l57.5,106.5c0.7,1.3,2.5,1.9,3.9,1.2
		c0.4-0.3,0.9-0.6,1.2-1.2l57.5-106.5c6.7-12.3,11.3-24.2,11.3-40C157.1,988.6,125.1,958.4,86,958.4z M86,964
		c36.3,0,65.5,27.3,65.5,68.4c0,14.8-4,25.4-10.5,37.2l-55,102l-55-101.9c-6.4-12-10.5-22.5-10.5-37.2C20.4,991.3,49.6,964,86,964z
		 M86,995.4c-18.8,0-34.1,15.3-34.1,34.1c0,18.8,15.3,34.1,34.1,34.1s34.1-15.3,34.1-34.1C120.1,1010.7,104.8,995.4,86,995.4z
		 M86,1001.1c15.7,0,28.5,12.8,28.5,28.5c0,15.7-12.8,28.5-28.5,28.5s-28.5-12.8-28.5-28.5C57.5,1013.8,70.2,1001.1,86,1001.1z"/>
</g>
</svg>
