<svg id="Layer_1" data-name="Layer 1" xmlns="http://www.w3.org/2000/svg" viewBox="0 0 252.61 193.1"><defs><style>.cls-1{fill:#fff;stroke:#fff;stroke-miterlimit:10;}</style></defs><title>mail</title><path class="cls-1" d="M265.72,59H62A23.92,23.92,0,0,0,38.24,82.81V227.29A23.92,23.92,0,0,0,62,251.1h204a23.92,23.92,0,0,0,23.81-23.81V82.81A24.2,24.2,0,0,0,265.72,59ZM44.86,97.35l77.7,56.87-77.7,58.19ZM282.91,227a17.29,17.29,0,0,1-17.19,17.19H62A17.29,17.29,0,0,1,44.86,227v-6.28l83.32-62.49,24.14,17.52a18.53,18.53,0,0,0,11.57,3.64,18.87,18.87,0,0,0,11.57-4l25.79-19.51-3.31,4.63,83.65,61.17,1.65-2V227Zm0-11.9-81-59.18,81-60.84Zm0-125.31-1.65-2L171.49,170.42a12.9,12.9,0,0,1-15.21,0L44.86,89.09V82.81A17.29,17.29,0,0,1,62,65.61h204a17.29,17.29,0,0,1,17.19,17.19v6.94Z" transform="translate(-37.74 -58.5)"/></svg>