<svg id="Layer_1" data-name="Layer 1" xmlns="http://www.w3.org/2000/svg" viewBox="0 0 113.89 181.38"><defs><style>.cls-1{fill:#fff;}</style></defs><title>mobile</title><path class="cls-1" d="M108.09,52A21.09,21.09,0,0,0,87,73.09h0v139.2a21.09,21.09,0,0,0,21.09,21.09H179.8a21.09,21.09,0,0,0,21.09-21.09V73.1A21.09,21.09,0,0,0,179.81,52H108.09Zm0,4.22H179.8a16.79,16.79,0,0,1,16.87,16.7q0,.09,0,.17H91.22a16.79,16.79,0,0,1,16.67-16.88h.2ZM91.22,77.32H196.66V199.67H91.22Zm0,126.54H196.66v8.44A16.79,16.79,0,0,1,180,229.21h-71.9a16.79,16.79,0,0,1-16.87-16.7v-8.65Zm38,10.54a2.13,2.13,0,0,0,0,4.22h29.53a2.13,2.13,0,1,0,0-4.22Z" transform="translate(-87 -52)"/></svg>